<svg xmlns="http://www.w3.org/2000/svg" width="32" height="32" viewBox="0 0 24 24">
  <rect x="3" y="3" width="18" height="18" rx="3" fill="#0A66C2"/>
  <path d="M7.2 10.2h2.1v6.6H7.2v-6.6Z" fill="#ffffff"/>
  <path d="M8.25 7.1c.68 0 1.2.5 1.2 1.13 0 .65-.52 1.14-1.2 1.14-.7 0-1.22-.49-1.22-1.14 0-.63.52-1.13 1.22-1.13Z" fill="#ffffff"/>
  <path d="M10.8 10.2h2v.9c.3-.52.98-1.03 2.03-1.03 2.17 0 2.57 1.42 2.57 3.27v3.46h-2.1v-3.07c0-.73-.01-1.67-1.02-1.67-1.02 0-1.18.8-1.18 1.62v3.12h-2.1v-6.6Z" fill="#ffffff"/>
</svg>
